<svg width="114" height="114" viewBox="0 0 114 114" fill="none" xmlns="http://www.w3.org/2000/svg">
<path fill-rule="evenodd" clip-rule="evenodd" d="M57 112C87.3757 112 112 87.3757 112 57C112 26.6243 87.3757 2 57 2C26.6243 2 2 26.6243 2 57C2 87.3757 26.6243 112 57 112ZM57 114C88.4802 114 114 88.4802 114 57C114 25.5198 88.4802 0 57 0C25.5198 0 0 25.5198 0 57C0 88.4802 25.5198 114 57 114Z" fill="white"/>
<path d="M72.4509 42.5074L62.2426 32.2991C62.0512 32.1077 61.792 32 61.5208 32H40.0833C37.8313 32 36 33.8313 36 36.0834V76.9167C36 79.1687 37.8313 81 40.0834 81H68.6667C70.9187 81 72.75 79.1687 72.75 76.9166V43.2291C72.75 42.958 72.6423 42.6988 72.4509 42.5074ZM62.5416 35.4852L69.2648 42.2084H64.5833C63.4578 42.2084 62.5416 41.2922 62.5416 40.1667V35.4852ZM70.7084 76.9166C70.7084 78.0421 69.7922 78.9583 68.6667 78.9583H40.0834C38.9579 78.9583 38.0417 78.0421 38.0417 76.9166V36.0834C38.0417 34.9579 38.9579 34.0417 40.0834 34.0417H60.5V40.1667C60.5 42.4187 62.3313 44.25 64.5834 44.25H70.7084V76.9166Z" fill="white"/>
<path d="M59.5798 61.968C58.6347 61.2243 57.7366 60.4597 57.1384 59.8616C56.3608 59.084 55.6679 58.3303 55.0659 57.6125C56.005 54.7105 56.4167 53.2142 56.4167 52.4166C56.4167 49.0282 55.1925 48.3333 53.3542 48.3333C51.9575 48.3333 50.2917 49.059 50.2917 52.5143C50.2917 54.0376 51.1262 55.8869 52.78 58.0362C52.3753 59.2714 51.8997 60.696 51.3654 62.302C51.1082 63.0726 50.8291 63.7863 50.534 64.4463C50.2937 64.553 50.0604 64.6616 49.8351 64.7743C49.0237 65.1801 48.2531 65.5449 47.5383 65.8839C44.2783 67.4271 42.125 68.4479 42.125 70.4636C42.125 71.9271 43.7151 72.8333 45.1875 72.8333C47.0856 72.8333 49.9517 70.2981 52.0452 66.0273C54.2184 65.17 56.9201 64.5349 59.0525 64.1372C60.7612 65.4511 62.6483 66.7083 63.5625 66.7083C66.0937 66.7083 66.625 65.2448 66.625 64.0176C66.625 61.604 63.8675 61.604 62.5416 61.604C62.1299 61.6041 61.0254 61.7258 59.5798 61.968ZM45.1875 70.7916C44.6043 70.7916 44.2095 70.5165 44.1666 70.4636C44.1666 69.7398 46.3249 68.7171 48.4125 67.7282C48.5451 67.6654 48.6797 67.6025 48.8163 67.5377C47.283 69.7609 45.7667 70.7916 45.1875 70.7916ZM52.3334 52.5143C52.3334 50.375 52.9974 50.375 53.3542 50.375C54.076 50.375 54.3751 50.375 54.3751 52.4166C54.3751 52.8473 54.088 53.9239 53.5626 55.6048C52.761 54.3706 52.3334 53.3129 52.3334 52.5143ZM53.1159 63.4863C53.1798 63.3089 53.2416 63.1294 53.3014 62.948C53.6802 61.8115 54.0212 60.7906 54.3252 59.8715C54.7489 60.3381 55.2055 60.8156 55.695 61.305C55.8864 61.4965 56.3609 61.9271 56.9931 62.4664C55.7347 62.7406 54.396 63.0805 53.1159 63.4863ZM64.5834 64.0177C64.5834 64.4763 64.5834 64.6666 63.6363 64.6726C63.3582 64.6128 62.7151 64.234 61.9216 63.6937C62.2096 63.6618 62.422 63.6458 62.5416 63.6458C64.05 63.6458 64.4777 63.7933 64.5834 64.0177Z" fill="white"/>
<path fill-rule="evenodd" clip-rule="evenodd" d="M85.3033 75.7574L80.5303 80.5303C80.2374 80.8232 79.7625 80.8232 79.4696 80.5303L74.6967 75.7574C74.4038 75.4645 74.4038 74.9896 74.6967 74.6967C74.9896 74.4038 75.4644 74.4038 75.7573 74.6967L79.25 78.1893L79.25 68C79.25 67.5858 79.5858 67.25 80 67.25C80.4142 67.25 80.75 67.5858 80.75 68L80.75 78.1893L84.2426 74.6967C84.5355 74.4038 85.0104 74.4038 85.3033 74.6967C85.5962 74.9896 85.5962 75.4645 85.3033 75.7574Z" fill="white"/>
</svg>
