<svg width="31" height="29" viewBox="0 0 31 29" fill="none" xmlns="http://www.w3.org/2000/svg">
<path fill-rule="evenodd" clip-rule="evenodd" d="M15.1222 0C6.60264 0 0 5.93739 0 13.9563C0 18.1509 1.80732 21.7753 4.74964 24.2794C4.99613 24.4908 5.14516 24.7831 5.15734 25.0987L5.23953 27.6577C5.2669 28.4741 6.1523 29.0039 6.93737 28.6767L9.93745 27.4175C10.1913 27.3105 10.476 27.2901 10.7438 27.3596C12.1221 27.7214 13.5917 27.9125 15.1222 27.9125C23.6417 27.9125 30.2443 21.9751 30.2443 13.9562C30.2443 5.93739 23.6417 0 15.1222 0Z" fill="url(#paint0_linear)"/>
<path d="M21.8381 6.9849C20.1416 5.28705 17.8856 4.35154 15.4818 4.35059C10.5292 4.35059 6.49834 8.3799 6.49636 13.3326C6.49573 14.9157 6.90948 16.4611 7.69577 17.8232L6.42102 22.478L11.1843 21.2289C12.4968 21.9445 13.9744 22.3216 15.4783 22.3223H15.482C20.4341 22.3223 24.4653 18.2925 24.4673 13.3397C24.4683 10.9396 23.5345 8.68275 21.8381 6.9849ZM15.482 20.8052H15.4789C14.1388 20.8047 12.8244 20.4448 11.6777 19.7645L11.405 19.6027L8.57838 20.344L9.33287 17.5889L9.15525 17.3065C8.40766 16.1178 8.01282 14.7438 8.01341 13.3332C8.01502 9.21672 11.3653 5.86768 15.4848 5.86768C17.4796 5.86844 19.3548 6.64608 20.7648 8.05725C22.1748 9.46842 22.9509 11.3443 22.9502 13.3392C22.9486 17.456 19.5983 20.8052 15.482 20.8052ZM19.5785 15.2136C19.3539 15.1012 18.2501 14.5583 18.0443 14.4834C17.8385 14.4084 17.6889 14.371 17.5392 14.5957C17.3895 14.8204 16.9593 15.326 16.8283 15.4757C16.6973 15.6255 16.5663 15.6443 16.3418 15.5319C16.1173 15.4196 15.3939 15.1826 14.5363 14.4179C13.8689 13.8229 13.4183 13.0878 13.2874 12.8631C13.1564 12.6384 13.2734 12.5169 13.3858 12.405C13.4868 12.3045 13.6103 12.1429 13.7226 12.0118C13.8348 11.8808 13.8723 11.7871 13.9471 11.6373C14.0219 11.4875 13.9845 11.3564 13.9284 11.2441C13.8723 11.1318 13.4232 10.027 13.2361 9.57765C13.0539 9.13999 12.8688 9.1992 12.731 9.19233C12.6002 9.18582 12.4503 9.18445 12.3007 9.18445C12.151 9.18445 11.9078 9.24061 11.702 9.46531C11.4962 9.69001 10.9162 10.233 10.9162 11.3377C10.9162 12.4424 11.7207 13.5097 11.8329 13.6595C11.9452 13.8093 13.4161 16.0764 15.6683 17.0485C16.204 17.2798 16.6222 17.4179 16.9482 17.5213C17.4861 17.6921 17.9755 17.668 18.3624 17.6103C18.7937 17.5458 19.6907 17.0673 19.8778 16.543C20.0649 16.0187 20.0649 15.5694 20.0088 15.4758C19.9526 15.3821 19.803 15.326 19.5785 15.2136Z" fill="white"/>
<defs>
<linearGradient id="paint0_linear" x1="15.1222" y1="0" x2="15.1222" y2="28.7751" gradientUnits="userSpaceOnUse">
<stop stop-color="#61FD7C"/>
<stop offset="1" stop-color="#2DBA28"/>
</linearGradient>
</defs>
</svg>
