<svg width="31" height="29" viewBox="0 0 31 29" fill="none" xmlns="http://www.w3.org/2000/svg">
<path fill-rule="evenodd" clip-rule="evenodd" d="M15.4822 0C6.75984 0 0 5.93739 0 13.9563C0 18.1509 1.85036 21.7753 4.86273 24.2794C5.11509 24.4908 5.26767 24.7831 5.28013 25.0987L5.36428 27.6577C5.3923 28.4741 6.29878 29.0039 7.10254 28.6767L10.1741 27.4175C10.4339 27.3105 10.7254 27.2901 10.9996 27.3596C12.4107 27.7214 13.9153 27.9125 15.4822 27.9125C24.2046 27.9125 30.9644 21.9751 30.9644 13.9562C30.9644 5.93739 24.2046 0 15.4822 0Z" fill="url(#paint0_linear)"/>
<path d="M6.68431 16.2515C6.80596 16.0939 6.87037 16.0008 6.94193 15.9077C7.8794 14.7189 8.81687 13.53 9.75434 12.334C10.0263 11.9903 10.2982 11.6393 10.47 11.224C10.6703 10.7513 10.4557 10.3073 9.96903 10.1354C9.75434 10.0709 9.52534 10.0423 9.29634 10.0566C8.02253 10.0494 6.74156 10.0494 5.46774 10.0566C5.28884 10.0566 5.10993 10.0781 4.93818 10.1211C4.53743 10.2213 4.29412 10.6295 4.3943 11.0378C4.46587 11.3099 4.68055 11.5247 4.95249 11.5892C5.12424 11.6322 5.30315 11.6537 5.48205 11.6465C6.25493 11.6537 7.03496 11.6465 7.80784 11.6537C7.89371 11.6537 8.00106 11.5964 8.06546 11.7253C8.00106 11.8112 7.93665 11.8972 7.87224 11.9759C6.76302 13.3796 5.66096 14.7905 4.55174 16.1942C4.2798 16.5451 4.13668 16.9318 4.33705 17.3615C4.53743 17.7912 4.94534 17.87 5.3604 17.8986C5.68959 17.9201 6.02593 17.9058 6.36227 17.9058C7.52159 17.9058 8.67374 17.913 9.83306 17.8986C10.4485 17.8915 10.7777 17.5191 10.7133 16.9461C10.6632 16.495 10.3555 16.2586 9.78296 16.2515C8.77393 16.2443 7.7649 16.2515 6.68431 16.2515ZM19.3151 13.7162C19.3151 12.5918 19.3223 11.4746 19.3151 10.3502C19.3151 9.7773 18.9501 9.41921 18.4063 9.42637C17.8767 9.43354 17.526 9.79162 17.5189 10.3431C17.5117 10.6797 17.5189 11.0091 17.5189 11.3457V17.0392C17.5189 17.4833 17.7908 17.87 18.1486 17.9631C18.6424 18.0992 19.1505 17.8055 19.2793 17.3114C19.3008 17.2254 19.3151 17.1395 19.3079 17.0464C19.3223 15.9363 19.3151 14.8263 19.3151 13.7162Z" fill="white"/>
<path d="M6.68423 16.2514C7.76482 16.2514 8.78101 16.2442 9.79004 16.2514C10.3554 16.2586 10.6631 16.4949 10.7204 16.9461C10.7848 17.5119 10.4556 17.8914 9.84013 17.8986C8.68082 17.9129 7.52866 17.9058 6.36935 17.9058C6.03301 17.9058 5.70382 17.9201 5.36748 17.8986C4.95241 17.8771 4.54451 17.7912 4.34413 17.3615C4.14376 16.9318 4.28688 16.545 4.55882 16.1941C5.66088 14.7904 6.7701 13.3796 7.87932 11.9759C7.94373 11.8899 8.00813 11.804 8.07254 11.7252C8.00098 11.6035 7.90079 11.6608 7.81491 11.6536C7.04204 11.6465 6.26201 11.6536 5.48913 11.6465C5.31023 11.6465 5.13132 11.625 4.95957 11.5892C4.55166 11.4961 4.3012 11.0878 4.39423 10.6868C4.45863 10.4146 4.67332 10.1926 4.94526 10.1282C5.11701 10.0852 5.29591 10.0637 5.47482 10.0637C6.74863 10.0566 8.0296 10.0566 9.30342 10.0637C9.53242 10.0566 9.75426 10.0852 9.9761 10.1425C10.4627 10.3072 10.6703 10.7584 10.477 11.2311C10.3053 11.6393 10.0334 11.9902 9.76142 12.3411C8.82395 13.5371 7.88648 14.726 6.94901 15.9076C6.87029 16.0008 6.79873 16.0939 6.68423 16.2514Z" fill="white"/>
<path fill-rule="evenodd" clip-rule="evenodd" d="M15.0459 12.2893C15.2177 12.0673 15.3966 11.8596 15.69 11.8023C16.2553 11.6877 16.7849 12.053 16.7921 12.6259C16.8135 14.0582 16.8064 15.4906 16.7921 16.9229C16.7921 17.2953 16.5487 17.6248 16.1981 17.7322C15.8403 17.8683 15.4324 17.7608 15.1962 17.4529C15.0746 17.3025 15.0245 17.2738 14.8527 17.4099C14.2015 17.9399 13.4644 18.033 12.6701 17.7752C11.3962 17.3598 10.8738 16.3643 10.7307 15.154C10.5804 13.8434 11.017 12.7262 12.1906 12.0387C13.1638 11.4586 14.1514 11.5087 15.0459 12.2893ZM13.697 13.3646C12.9169 13.3216 12.3659 13.9304 12.3731 14.9402C12.3874 15.2553 12.4876 15.5561 12.6665 15.8067C12.738 15.8998 12.8167 15.9786 12.9026 16.0431C13.425 16.4298 14.1621 16.3224 14.5486 15.8067C14.9493 15.2624 14.9493 14.3601 14.5486 13.8229C14.3482 13.5436 14.0333 13.3789 13.697 13.3646Z" fill="white"/>
<path d="M19.315 13.7161C19.315 14.8262 19.3222 15.9363 19.315 17.0463C19.3222 17.5548 18.9214 17.9773 18.4133 17.9917C18.3275 17.9917 18.2344 17.9845 18.1486 17.963C17.7907 17.8699 17.5188 17.4903 17.5188 17.0392V11.3456C17.5188 11.009 17.5116 10.6796 17.5188 10.343C17.526 9.79154 17.8766 9.43346 18.4062 9.43346C18.9501 9.42629 19.315 9.78438 19.315 10.3573C19.3222 11.4745 19.315 12.5989 19.315 13.7161Z" fill="white"/>
<path fill-rule="evenodd" clip-rule="evenodd" d="M20.0449 15.1524C20.0163 16.9428 21.4976 18.2964 23.3583 18.1102C25.0686 17.9383 26.1778 16.6564 26.1206 14.8445C26.0633 13.054 24.7323 11.8294 22.9074 11.8867C21.1971 11.9368 19.9877 13.3119 20.0449 15.1524ZM21.7857 14.9888C21.7714 15.3469 21.8788 15.6978 22.0934 15.9915C22.487 16.5071 23.2241 16.6074 23.7394 16.2063C23.8181 16.149 23.8825 16.0774 23.9469 16.0058C24.362 15.4615 24.362 14.5448 23.9541 14.0005C23.7537 13.7284 23.4388 13.5565 23.1025 13.5493C22.3296 13.5063 21.7857 14.0936 21.7857 14.9888Z" fill="white"/>
<defs>
<linearGradient id="paint0_linear" x1="15.4822" y1="0" x2="15.4822" y2="28.7751" gradientUnits="userSpaceOnUse">
<stop stop-color="#21A5D9"/>
<stop offset="1" stop-color="#087AA7"/>
</linearGradient>
</defs>
</svg>
