<svg width="43" height="40" viewBox="0 0 43 40" fill="none" xmlns="http://www.w3.org/2000/svg">
<path fill-rule="evenodd" clip-rule="evenodd" d="M21.3519 0C9.32267 0 0 8.18841 0 19.2475C0 25.0324 2.55187 30.0309 6.70632 33.4844C7.05435 33.7759 7.26478 34.1791 7.28196 34.6142L7.39801 38.1435C7.43666 39.2694 8.68681 40 9.7953 39.5488L14.0313 37.8122C14.3897 37.6647 14.7917 37.6365 15.1698 37.7323C17.1159 38.2313 19.191 38.4948 21.3519 38.4948C33.3812 38.4948 42.7038 30.3064 42.7038 19.2474C42.7038 8.18841 33.3812 0 21.3519 0Z" fill="url(#paint0_linear)"/>
<path fill-rule="evenodd" clip-rule="evenodd" d="M29.4618 24.0622C28.8397 23.5614 28.1749 23.1119 27.5205 22.6527C26.2154 21.7361 25.0217 21.6648 24.0478 23.1395C23.5009 23.9675 22.7354 24.0037 21.9349 23.6405C19.7281 22.6399 18.024 21.0981 17.0258 18.8551C16.5842 17.8628 16.5901 16.9731 17.6232 16.2712C18.1702 15.9 18.7212 15.4608 18.6772 14.6497C18.6196 13.5922 16.0519 10.058 15.0379 9.685C14.6183 9.53062 14.2005 9.54067 13.7736 9.68413C11.396 10.4837 10.4111 12.4391 11.3543 14.7544C14.168 21.6621 19.1196 26.4709 25.9358 29.406C26.3245 29.5731 26.7562 29.6399 26.9748 29.6999C28.5266 29.7155 30.3445 28.2204 30.8695 26.7366C31.375 25.309 30.3067 24.7424 29.4618 24.0622ZM21.8191 10.3932C26.8022 11.1595 29.1003 13.529 29.7349 18.5479C29.7937 19.0115 29.621 19.7091 30.2825 19.7219C30.9737 19.7352 30.8072 19.0479 30.813 18.5838C30.8714 13.8569 26.7498 9.47483 21.9632 9.31326C21.602 9.36523 20.8548 9.06422 20.8082 9.87365C20.7771 10.4194 21.4062 10.3297 21.8191 10.3932Z" fill="white"/>
<path fill-rule="evenodd" clip-rule="evenodd" d="M22.7938 11.7694C22.3145 11.7117 21.6817 11.4859 21.5697 12.1509C21.4528 12.849 22.158 12.7781 22.6112 12.8795C25.6888 13.5673 26.7605 14.6875 27.2672 17.7404C27.3412 18.1855 27.1942 18.8782 27.9506 18.7634C28.5111 18.6781 28.3086 18.0843 28.3555 17.7374C28.3803 14.8064 25.8688 12.1387 22.7938 11.7694Z" fill="white"/>
<path fill-rule="evenodd" clip-rule="evenodd" d="M23.0764 14.166C22.7565 14.1739 22.4425 14.2086 22.3249 14.5505C22.1483 15.0615 22.5198 15.1834 22.898 15.2441C24.1605 15.4468 24.8249 16.1912 24.951 17.4502C24.9851 17.7919 25.2019 18.0688 25.532 18.0299C25.9894 17.9753 26.0308 17.5681 26.0168 17.1815C26.0394 15.7671 24.4407 14.1322 23.0764 14.166Z" fill="white"/>
<defs>
<linearGradient id="paint0_linear" x1="21.3519" y1="0" x2="21.3519" y2="39.6845" gradientUnits="userSpaceOnUse">
<stop stop-color="#966EB8"/>
<stop offset="1" stop-color="#7A539B"/>
</linearGradient>
</defs>
</svg>
