<svg width="43" height="40" viewBox="0 0 43 40" fill="none" xmlns="http://www.w3.org/2000/svg">
<path fill-rule="evenodd" clip-rule="evenodd" d="M21.3519 0C9.32267 0 0 8.18841 0 19.2475C0 25.0324 2.55187 30.0309 6.70632 33.4844C7.05435 33.7759 7.26478 34.1791 7.28196 34.6142L7.39801 38.1435C7.43666 39.2694 8.68681 40 9.7953 39.5488L14.0313 37.8122C14.3897 37.6647 14.7917 37.6365 15.1698 37.7323C17.1159 38.2313 19.191 38.4948 21.3519 38.4948C33.3812 38.4948 42.7038 30.3064 42.7038 19.2474C42.7038 8.18841 33.3812 0 21.3519 0Z" fill="url(#paint0_linear)"/>
<path fill-rule="evenodd" clip-rule="evenodd" d="M8.53223 24.8768L14.8046 15.6304C15.8013 14.1612 17.9407 13.7939 19.4358 14.8359L24.4236 18.3133C24.6464 18.4682 24.9173 18.5516 25.1955 18.5509C25.4737 18.5502 25.7441 18.4654 25.966 18.3093L32.7024 13.5583C33.6002 12.9236 34.7775 13.9257 34.1716 14.812L27.9035 24.0544C26.9068 25.5236 24.7674 25.891 23.2723 24.8489L18.2845 21.3715C18.0617 21.2166 17.7908 21.1332 17.5126 21.1339C17.2344 21.1347 16.964 21.2194 16.7421 21.3755L10.0015 26.1305C9.1036 26.7653 7.92637 25.7631 8.53223 24.8768Z" fill="white"/>
<defs>
<linearGradient id="paint0_linear" x1="21.3519" y1="0" x2="21.3519" y2="39.6845" gradientUnits="userSpaceOnUse">
<stop stop-color="#00B2FF"/>
<stop offset="1" stop-color="#006AFF"/>
</linearGradient>
</defs>
</svg>
