<svg width="102" height="30" viewBox="0 0 102 30" fill="none" xmlns="http://www.w3.org/2000/svg">
<path fill-rule="evenodd" clip-rule="evenodd" d="M16.0096 0C6.99009 0 0 6.13963 0 14.4317C0 18.7692 1.91338 22.517 5.02836 25.1064C5.28932 25.325 5.44709 25.6273 5.45998 25.9536L5.54699 28.5998C5.57597 29.444 6.51333 29.9918 7.34447 29.6535L10.5206 28.3514C10.7893 28.2408 11.0907 28.2196 11.3742 28.2915C12.8334 28.6657 14.3893 28.8632 16.0096 28.8632C25.029 28.8632 32.0191 22.7236 32.0191 14.4316C32.0191 6.13963 25.029 0 16.0096 0Z" fill="url(#paint0_linear)"/>
<path fill-rule="evenodd" clip-rule="evenodd" d="M6.39746 18.6526L11.1004 11.7197C11.8478 10.6181 13.4519 10.3426 14.5729 11.124L18.3127 13.7313C18.4798 13.8474 18.6829 13.9099 18.8915 13.9094C19.1001 13.9089 19.3028 13.8453 19.4692 13.7283L24.5201 10.166C25.1933 9.6901 26.076 10.4415 25.6217 11.106L20.922 18.0359C20.1747 19.1375 18.5705 19.413 17.4495 18.6316L13.7097 16.0243C13.5426 15.9082 13.3395 15.8456 13.1309 15.8462C12.9223 15.8467 12.7196 15.9103 12.5532 16.0273L7.49908 19.5926C6.82587 20.0685 5.94319 19.3171 6.39746 18.6526Z" fill="white"/>
<path d="M72.2085 8.4401C71.6637 8.4401 71.2709 8.61448 70.8727 8.79213V12.812C71.2542 12.8475 71.4728 12.8475 71.8347 12.8475C73.1424 12.8475 73.3217 12.263 73.3217 11.4468V9.5269C73.3217 8.92418 73.1167 8.4401 72.2085 8.4401ZM63.5238 8.22071C62.6165 8.22071 62.4094 8.70688 62.4094 9.30901V9.64733H64.6369V9.30901C64.6369 8.70688 64.4299 8.22071 63.5238 8.22071ZM46.6998 12.4049C46.6998 12.8812 46.93 13.1286 47.4382 13.1286C47.9833 13.1286 48.3061 12.9551 48.704 12.7769V11.8233H47.5121C46.9477 11.8233 46.6998 11.9259 46.6998 12.4049ZM80.6565 8.4401C79.7477 8.4401 79.4328 8.92418 79.4328 9.5269V11.7264C79.4328 12.3306 79.7477 12.8162 80.6565 12.8162C81.563 12.8162 81.8802 12.3306 81.8802 11.7264V9.5269C81.8799 8.92418 81.5626 8.4401 80.6565 8.4401ZM42.2459 14.8712H39.5744V8.55963H38.2395V6.38484H39.5747V5.07865C39.5747 3.30417 40.3281 2.24927 42.4695 2.24927H44.2524V4.42466H43.138C42.3043 4.42466 42.2493 4.7287 42.2493 5.29595L42.2459 6.38454H44.2646L44.0285 8.55933H42.2459V14.8712ZM51.3762 14.8876H49.1496L49.0534 14.3379C48.0368 14.8876 47.1294 14.9767 46.5309 14.9767C44.898 14.9767 44.0288 13.912 44.0288 12.4394C44.0288 10.7022 45.043 10.0822 46.8573 10.0822H48.704V9.70665C48.704 8.81986 48.5999 8.55963 47.2027 8.55963H44.9184L45.1417 6.38484H47.6385C50.7041 6.38484 51.3762 7.33005 51.3762 9.72423V14.8876ZM58.9478 8.71911C57.5622 8.4872 57.1643 8.43623 56.4976 8.43623C55.3002 8.43623 54.9383 8.69407 54.9383 9.68667V11.5643C54.9383 12.5569 55.3002 12.8159 56.4976 12.8159C57.1643 12.8159 57.5622 12.7641 58.9478 12.5313V14.6527C57.7342 14.9183 56.9435 14.988 56.2753 14.988C53.4071 14.988 52.267 13.5158 52.267 11.389V9.86552C52.267 7.73693 53.4071 6.26203 56.2753 6.26203C56.9435 6.26203 57.7342 6.33208 58.9478 6.59886V8.71911ZM67.3082 11.389H62.4091V11.5643C62.4091 12.5569 62.7713 12.8159 63.9684 12.8159C65.0446 12.8159 65.7015 12.7641 67.0846 12.5313V14.6527C65.7507 14.9183 65.0556 14.988 63.747 14.988C60.8785 14.988 59.7378 13.5158 59.7378 11.389V9.64703C59.7378 7.78611 60.5841 6.26203 63.5235 6.26203C66.4629 6.26203 67.3082 7.76853 67.3082 9.64703V11.389ZM75.9926 11.4293C75.9926 13.4848 75.3907 14.9842 71.7443 14.9842C70.4275 14.9842 69.6551 14.8712 68.2018 14.653V2.90266L70.8724 2.46776V6.57799C71.4496 6.36874 72.1966 6.26233 72.8764 6.26233C75.5473 6.26233 75.9923 7.4311 75.9923 9.3093L75.9926 11.4293ZM84.5536 11.474C84.5536 13.2472 83.8036 14.9672 80.6654 14.9672C77.5257 14.9672 76.7616 13.2472 76.7616 11.474V9.76179C76.7616 7.98761 77.5257 6.26739 80.6654 6.26739C83.8036 6.26739 84.5536 7.98761 84.5536 9.76179V11.474ZM93.1089 11.474C93.1089 13.2472 92.3579 14.9672 89.2203 14.9672C86.0806 14.9672 85.3165 13.2472 85.3165 11.474V9.76179C85.3165 7.98761 86.0806 6.26739 89.2203 6.26739C92.3579 6.26739 93.1089 7.98761 93.1089 9.76179V11.474ZM101.889 14.8712H98.9938L96.5455 10.882V14.8712H93.8739V2.90236L96.5455 2.46746V10.1725L98.9938 6.38484H101.889L99.2158 10.5183L101.889 14.8712ZM89.2112 8.4401C88.3039 8.4401 87.989 8.92418 87.989 9.5269V11.7264C87.989 12.3306 88.3039 12.8162 89.2112 12.8162C90.1173 12.8162 90.4379 12.3306 90.4379 11.7264V9.5269C90.4379 8.92418 90.1173 8.4401 89.2112 8.4401Z" fill="white"/>
<path d="M43.2187 26.9925L40.0262 19.0845H39.9793C40.0106 19.5688 40.0262 20.0647 40.0262 20.5724V26.9925H39.4521V18.4285H40.3777L43.412 25.9616H43.4472L46.4815 18.4285H47.3836V26.9925H46.7802V20.5021C46.7802 20.0491 46.8037 19.5805 46.8505 19.0963H46.8037L43.5995 26.9925H43.2187Z" fill="white"/>
<path d="M52.2338 27.1097C51.3083 27.1097 50.5858 26.8246 50.0664 26.2545C49.551 25.6843 49.2932 24.8857 49.2932 23.8586C49.2932 22.8433 49.5431 22.031 50.043 21.4218C50.5429 20.8087 51.2165 20.5021 52.0639 20.5021C52.8137 20.5021 53.4054 20.7638 53.8388 21.2871C54.2723 21.8104 54.4891 22.5211 54.4891 23.4193V23.8879H49.9024C49.9102 24.7627 50.1133 25.4305 50.5116 25.8913C50.9139 26.3521 51.4879 26.5825 52.2338 26.5825C52.597 26.5825 52.9153 26.5571 53.1886 26.5063C53.4659 26.4556 53.8154 26.3462 54.2372 26.1783V26.7055C53.8779 26.8617 53.546 26.9671 53.2413 27.0218C52.9367 27.0804 52.6009 27.1097 52.2338 27.1097ZM52.0639 21.0176C51.4508 21.0176 50.9588 21.2207 50.5878 21.6268C50.2168 22.029 50 22.6109 49.9376 23.3724H53.874C53.874 22.6343 53.7139 22.0583 53.3937 21.6444C53.0734 21.2265 52.6302 21.0176 52.0639 21.0176Z" fill="white"/>
<path d="M60.1945 25.3348C60.1945 25.9049 59.9778 26.3443 59.5443 26.6528C59.1108 26.9574 58.4958 27.1097 57.6991 27.1097C56.8478 27.1097 56.1722 26.9789 55.6723 26.7172V26.0904C56.3128 26.4107 56.9884 26.5708 57.6991 26.5708C58.3279 26.5708 58.8043 26.4673 59.1284 26.2603C59.4564 26.0494 59.6205 25.7702 59.6205 25.4226C59.6205 25.1024 59.4896 24.833 59.228 24.6143C58.9703 24.3956 58.5446 24.1808 57.951 23.9699C57.3145 23.7395 56.8673 23.5423 56.6096 23.3783C56.3518 23.2104 56.1566 23.0229 56.0238 22.8159C55.8949 22.6051 55.8305 22.3493 55.8305 22.0486C55.8305 21.5721 56.0296 21.1953 56.428 20.918C56.8302 20.6408 57.3906 20.5021 58.1092 20.5021C58.7965 20.5021 59.4486 20.631 60.0657 20.8887L59.8489 21.4159C59.2241 21.1582 58.6442 21.0293 58.1092 21.0293C57.5898 21.0293 57.1778 21.1152 56.8732 21.2871C56.5686 21.4589 56.4163 21.6971 56.4163 22.0017C56.4163 22.3336 56.5334 22.5992 56.7677 22.7984C57.0059 22.9975 57.4687 23.2201 58.156 23.4662C58.7301 23.6731 59.1479 23.8606 59.4096 24.0285C59.6712 24.1925 59.8665 24.38 59.9954 24.5908C60.1281 24.8017 60.1945 25.0497 60.1945 25.3348Z" fill="white"/>
<path d="M65.7828 25.3348C65.7828 25.9049 65.5661 26.3443 65.1326 26.6528C64.6992 26.9574 64.0841 27.1097 63.2874 27.1097C62.4361 27.1097 61.7605 26.9789 61.2606 26.7172V26.0904C61.9011 26.4107 62.5767 26.5708 63.2874 26.5708C63.9162 26.5708 64.3926 26.4673 64.7167 26.2603C65.0448 26.0494 65.2088 25.7702 65.2088 25.4226C65.2088 25.1024 65.078 24.833 64.8163 24.6143C64.5586 24.3956 64.1329 24.1808 63.5393 23.9699C62.9028 23.7395 62.4556 23.5423 62.1979 23.3783C61.9401 23.2104 61.7449 23.0229 61.6121 22.8159C61.4832 22.6051 61.4188 22.3493 61.4188 22.0486C61.4188 21.5721 61.618 21.1953 62.0163 20.918C62.4185 20.6408 62.9789 20.5021 63.6975 20.5021C64.3848 20.5021 65.037 20.631 65.654 20.8887L65.4372 21.4159C64.8124 21.1582 64.2325 21.0293 63.6975 21.0293C63.1781 21.0293 62.7661 21.1152 62.4615 21.2871C62.1569 21.4589 62.0046 21.6971 62.0046 22.0017C62.0046 22.3336 62.1217 22.5992 62.356 22.7984C62.5943 22.9975 63.057 23.2201 63.7443 23.4662C64.3184 23.6731 64.7363 23.8606 64.9979 24.0285C65.2596 24.1925 65.4548 24.38 65.5837 24.5908C65.7165 24.8017 65.7828 25.0497 65.7828 25.3348Z" fill="white"/>
<path d="M69.9946 27.1097C69.0691 27.1097 68.3466 26.8246 67.8272 26.2545C67.3117 25.6843 67.054 24.8857 67.054 23.8586C67.054 22.8433 67.3039 22.031 67.8038 21.4218C68.3036 20.8087 68.9773 20.5021 69.8247 20.5021C70.5745 20.5021 71.1661 20.7638 71.5996 21.2871C72.0331 21.8104 72.2498 22.5211 72.2498 23.4193V23.8879H67.6632C67.671 24.7627 67.8741 25.4305 68.2724 25.8913C68.6746 26.3521 69.2487 26.5825 69.9946 26.5825C70.3578 26.5825 70.676 26.5571 70.9494 26.5063C71.2267 26.4556 71.5762 26.3462 71.9979 26.1783V26.7055C71.6387 26.8617 71.3067 26.9671 71.0021 27.0218C70.6975 27.0804 70.3617 27.1097 69.9946 27.1097ZM69.8247 21.0176C69.2116 21.0176 68.7195 21.2207 68.3486 21.6268C67.9776 22.029 67.7608 22.6109 67.6983 23.3724H71.6348C71.6348 22.6343 71.4746 22.0583 71.1544 21.6444C70.8342 21.2265 70.391 21.0176 69.8247 21.0176Z" fill="white"/>
<path d="M78.4474 26.9925V22.8628C78.4474 22.2224 78.3126 21.7576 78.0432 21.4687C77.7737 21.1758 77.3559 21.0293 76.7896 21.0293C76.0281 21.0293 75.4697 21.2226 75.1143 21.6092C74.7628 21.9919 74.5871 22.6148 74.5871 23.4779V26.9925H74.0072V20.6251H74.4992L74.6105 21.4979H74.6457C75.0596 20.8341 75.7957 20.5021 76.854 20.5021C78.299 20.5021 79.0214 21.2773 79.0214 22.8277V26.9925H78.4474Z" fill="white"/>
<path d="M86.0507 20.6251V21.0293L84.7327 21.1113C85.0842 21.5487 85.2599 22.029 85.2599 22.5523C85.2599 23.1655 85.0549 23.6634 84.6449 24.0461C84.2387 24.4249 83.692 24.6143 83.0047 24.6143C82.7157 24.6143 82.5126 24.6026 82.3955 24.5791C82.1651 24.7002 81.9894 24.8427 81.8683 25.0067C81.7472 25.1708 81.6867 25.3445 81.6867 25.5281C81.6867 25.7312 81.7629 25.8796 81.9152 25.9733C82.0714 26.067 82.3311 26.1139 82.6942 26.1139H83.8072C84.4984 26.1139 85.0276 26.2545 85.3947 26.5356C85.7618 26.8129 85.9453 27.2249 85.9453 27.7716C85.9453 28.4433 85.6719 28.9607 85.1252 29.3239C84.5824 29.691 83.8072 29.8746 82.7997 29.8746C81.9991 29.8746 81.3782 29.7203 80.9369 29.4118C80.4995 29.1033 80.2808 28.6737 80.2808 28.1231C80.2808 27.6857 80.4156 27.3225 80.685 27.0335C80.9584 26.7446 81.3274 26.5473 81.7921 26.4419C81.6008 26.3599 81.4465 26.2447 81.3294 26.0963C81.2161 25.944 81.1595 25.7702 81.1595 25.575C81.1595 25.1493 81.4309 24.7744 81.9737 24.4503C81.6027 24.298 81.3138 24.0597 81.1068 23.7356C80.8998 23.4076 80.7963 23.0327 80.7963 22.6109C80.7963 21.9744 80.9974 21.4647 81.3997 21.082C81.8058 20.6954 82.3525 20.5021 83.0398 20.5021C83.4577 20.5021 83.7818 20.5431 84.0122 20.6251H86.0507ZM80.8959 28.0704C80.8959 28.9451 81.5461 29.3825 82.8465 29.3825C84.518 29.3825 85.3537 28.8494 85.3537 27.7833C85.3537 27.4006 85.2228 27.1234 84.9612 26.9515C84.6996 26.7797 84.2758 26.6938 83.6901 26.6938H82.6474C81.4797 26.6938 80.8959 27.1526 80.8959 28.0704ZM81.3821 22.6109C81.3821 23.103 81.5305 23.4857 81.8273 23.759C82.128 24.0285 82.5283 24.1632 83.0281 24.1632C83.5592 24.1632 83.9654 24.0285 84.2466 23.759C84.5316 23.4896 84.6742 23.0991 84.6742 22.5875C84.6742 22.0447 84.5277 21.6385 84.2348 21.3691C83.9459 21.0957 83.5397 20.959 83.0164 20.959C82.5087 20.959 82.1085 21.1055 81.8156 21.3984C81.5266 21.6873 81.3821 22.0915 81.3821 22.6109Z" fill="white"/>
<path d="M89.9344 27.1097C89.0089 27.1097 88.2865 26.8246 87.7671 26.2545C87.2516 25.6843 86.9938 24.8857 86.9938 23.8586C86.9938 22.8433 87.2438 22.031 87.7436 21.4218C88.2435 20.8087 88.9171 20.5021 89.7646 20.5021C90.5144 20.5021 91.106 20.7638 91.5395 21.2871C91.973 21.8104 92.1897 22.5211 92.1897 23.4193V23.8879H87.6031C87.6109 24.7627 87.8139 25.4305 88.2123 25.8913C88.6145 26.3521 89.1886 26.5825 89.9344 26.5825C90.2976 26.5825 90.6159 26.5571 90.8893 26.5063C91.1665 26.4556 91.516 26.3462 91.9378 26.1783V26.7055C91.5785 26.8617 91.2466 26.9671 90.942 27.0218C90.6374 27.0804 90.3015 27.1097 89.9344 27.1097ZM89.7646 21.0176C89.1515 21.0176 88.6594 21.2207 88.2884 21.6268C87.9174 22.029 87.7007 22.6109 87.6382 23.3724H91.5746C91.5746 22.6343 91.4145 22.0583 91.0943 21.6444C90.7741 21.2265 90.3308 21.0176 89.7646 21.0176Z" fill="white"/>
<path d="M96.4542 20.5021C96.7236 20.5021 97.0126 20.5295 97.3211 20.5841L97.2098 21.1406C96.9443 21.0742 96.6689 21.041 96.3839 21.041C95.841 21.041 95.3958 21.2714 95.0483 21.7323C94.7007 22.1931 94.5269 22.7749 94.5269 23.4779V26.9925H93.947V20.6251H94.4391L94.4977 21.7733H94.5387C94.8003 21.3046 95.0795 20.9766 95.3763 20.7891C95.6731 20.5978 96.0324 20.5021 96.4542 20.5021Z" fill="white"/>
<defs>
<linearGradient id="paint0_linear" x1="16.0096" y1="0" x2="16.0096" y2="29.7552" gradientUnits="userSpaceOnUse">
<stop stop-color="#00B2FF"/>
<stop offset="1" stop-color="#006AFF"/>
</linearGradient>
</defs>
</svg>
