<svg width="35" height="15" viewBox="0 0 35 15" fill="none" xmlns="http://www.w3.org/2000/svg">
<path d="M11.122 3.38722C11.122 3.38722 11.0634 3.3487 10.9657 3.27167C10.8681 3.19465 10.7118 3.0791 10.497 2.9443C10.0868 2.6747 9.42274 2.32807 8.56337 2.07773C7.68446 1.82738 6.55165 1.69258 5.34071 1.96218C4.14931 2.21253 2.87977 2.98282 2.0204 4.15751C1.80556 4.46562 1.62977 4.77374 1.47352 5.12037C1.43446 5.21665 1.3954 5.29368 1.37587 5.38997C1.35634 5.48626 1.31727 5.56328 1.29774 5.65957C1.27821 5.75586 1.25868 5.85214 1.23915 5.92917C1.21962 6.02546 1.18056 6.141 1.18056 6.21803C1.16102 6.31432 1.16102 6.4106 1.14149 6.48763C1.14149 6.58392 1.14149 6.6802 1.14149 6.77649C1.12196 6.96906 1.16102 7.16163 1.16102 7.35421C1.21962 7.73935 1.31727 8.1245 1.47352 8.49038C1.64931 8.85627 1.84462 9.2029 2.09852 9.51101C2.37196 9.81913 2.66493 10.108 3.01649 10.3391C3.36806 10.5702 3.73915 10.7627 4.14931 10.8975L4.18837 10.9168H4.2079C4.22743 10.9168 4.16884 10.8975 4.18837 10.9168L4.28602 10.936L4.46181 10.9746C4.57899 10.9938 4.71571 11.0516 4.81337 11.0516L5.12587 11.1094C5.22352 11.1286 5.34071 11.1286 5.4579 11.1479C5.67274 11.1671 5.90712 11.1671 6.12196 11.1671C6.35634 11.1479 6.57118 11.1479 6.80556 11.1094C7.25477 11.0516 7.72352 10.936 8.19227 10.8012C9.11024 10.5316 10.0282 10.1272 10.9657 9.68433C12.8212 8.77924 14.6766 7.73935 16.5126 6.69946C18.3681 5.65957 20.2626 4.63894 22.1766 3.69533C22.6649 3.46425 23.1337 3.23316 23.622 3.02133C23.8563 2.90579 24.1102 2.8095 24.3446 2.71322C24.579 2.61693 24.8329 2.50139 25.0673 2.42436C25.5556 2.23178 26.0438 2.05847 26.5321 1.88515C27.0399 1.71184 27.5477 1.55778 28.0946 1.4615C28.3681 1.40372 28.6415 1.38447 28.9345 1.36521C29.0712 1.36521 29.2079 1.34595 29.3641 1.36521C29.4423 1.36521 29.5009 1.36521 29.579 1.36521H29.6766H29.7352H29.7548H29.8134C30.0673 1.40372 30.2821 1.42298 30.5751 1.48075C30.8681 1.53852 31.1024 1.61555 31.3759 1.69258C31.8837 1.8659 32.372 2.11624 32.8016 2.4051C33.2313 2.69396 33.622 3.05985 33.954 3.46425C34.286 3.86865 34.5399 4.31156 34.7157 4.79299C34.7548 4.90854 34.7938 5.02408 34.8329 5.15888C34.872 5.27443 34.8915 5.40923 34.911 5.52477C34.9696 5.75586 34.9696 6.0062 34.9891 6.25654C34.9891 6.37209 34.9891 6.48763 34.9891 6.62243V6.79575V6.83426V6.85352C34.9891 6.91129 34.9891 6.87278 34.9891 6.89203L34.9696 6.96906C34.9501 7.0846 34.9501 7.16163 34.9306 7.29643C34.911 7.41198 34.872 7.52752 34.8524 7.66232C34.7352 8.10524 34.5595 8.50964 34.3446 8.89478C33.4657 10.3968 32.0204 11.3019 30.7118 11.6101C29.3446 11.9374 28.1337 11.7063 27.2352 11.3982C26.3368 11.0708 25.7118 10.6472 25.3212 10.3391C25.2235 10.262 25.1454 10.185 25.0673 10.1272C24.9891 10.0695 24.9306 10.0117 24.8915 9.95393C24.7938 9.85765 24.7548 9.81913 24.7548 9.81913C24.7548 9.81913 24.8134 9.85765 24.911 9.93467C24.9696 9.97319 25.0282 10.0117 25.1063 10.0695C25.1845 10.1272 25.2821 10.185 25.3798 10.2428C25.5946 10.3776 25.8681 10.5124 26.1806 10.6664C26.5126 10.8012 26.8837 10.9553 27.3329 11.0709C27.7821 11.1864 28.2704 11.2634 28.8173 11.2634C28.8759 11.2634 28.954 11.2634 29.0126 11.2634C29.0907 11.2634 29.1493 11.2442 29.2274 11.2442C29.3056 11.2442 29.3641 11.2442 29.4423 11.2249C29.5204 11.2249 29.579 11.2057 29.6571 11.1864C29.9501 11.1479 30.2431 11.0708 30.5165 10.9938C30.6532 10.9553 30.829 10.8783 30.9657 10.8205C31.0243 10.782 31.1024 10.7627 31.161 10.7242C31.2392 10.6857 31.2977 10.6472 31.3759 10.6087C31.6688 10.4546 31.9227 10.262 32.1962 10.0502C32.704 9.62656 33.1923 9.0681 33.5048 8.43261C34.1688 7.16163 34.0712 5.42848 33.0165 4.25379C32.7431 3.96493 32.4501 3.69533 32.0985 3.4835C31.747 3.27167 31.3563 3.09836 30.9657 2.98282C30.7704 2.92504 30.5556 2.86727 30.3602 2.84802C30.1845 2.8095 29.911 2.79024 29.6766 2.77099C29.6571 2.77099 29.7157 2.77099 29.6766 2.77099H29.6571H29.6181H29.5399C29.4813 2.77099 29.4423 2.77099 29.3837 2.77099C29.286 2.77099 29.1688 2.77099 29.0712 2.79024C28.8563 2.8095 28.6415 2.84802 28.4267 2.88653C27.997 2.98282 27.5477 3.11762 27.079 3.29093C26.6298 3.46425 26.1415 3.65682 25.6923 3.84939C25.4579 3.94568 25.2235 4.04196 24.9891 4.15751C24.7548 4.25379 24.5204 4.36934 24.286 4.46562C23.8173 4.67745 23.3485 4.90854 22.8993 5.12037C21.0438 6.04471 19.2079 7.0846 17.3524 8.12449C15.4774 9.16438 13.6024 10.185 11.6688 11.1094C11.1806 11.3405 10.6923 11.5523 10.1845 11.7641C9.67665 11.9567 9.16884 12.13 8.62196 12.2648C8.09462 12.3996 7.54774 12.5151 7.00087 12.5729C6.72743 12.6114 6.45399 12.6114 6.16102 12.6307C5.88759 12.6114 5.59462 12.6307 5.32118 12.5922C5.16493 12.5344 5.02821 12.5344 4.87196 12.4959L4.44227 12.4189C4.28602 12.3996 4.18837 12.3611 4.07118 12.3226L3.8954 12.2648L3.79774 12.2455C3.81727 12.2455 3.73915 12.2263 3.73915 12.2263H3.71962L3.66102 12.207C3.13368 12.0145 2.6454 11.7449 2.21571 11.4175C1.78602 11.0901 1.3954 10.705 1.0829 10.2813C0.770399 9.85765 0.516493 9.39547 0.340712 8.9333C0.164931 8.45187 0.0477431 7.97044 0.00868056 7.46975C0.00868056 7.21941 -0.0108507 6.96906 0.00868056 6.73797C0.0282118 6.62243 0.0282118 6.50689 0.0477431 6.37209C0.0672743 6.25654 0.0868055 6.12174 0.125868 6.0062C0.145399 5.8714 0.184462 5.77511 0.203993 5.67883L0.243056 5.52477L0.262587 5.44774V5.40923C0.262587 5.40923 0.282118 5.35145 0.282118 5.37071V5.35145C0.321181 5.23591 0.360243 5.13963 0.418837 5.02408C0.457899 4.9278 0.516493 4.81225 0.555556 4.71597C0.750868 4.31156 1.00477 3.94568 1.27821 3.6183C1.55165 3.29093 1.84462 2.98282 2.15712 2.73247C2.46962 2.46287 2.80165 2.25104 3.15321 2.05847C3.50477 1.88515 3.83681 1.7311 4.18837 1.61555C4.36415 1.55778 4.55946 1.50001 4.71571 1.4615C4.79384 1.44224 4.87196 1.42298 4.96962 1.40372C5.06727 1.36521 5.1454 1.36521 5.22352 1.34595C6.59071 1.15338 7.78212 1.42298 8.66102 1.76961C9.55946 2.11624 10.1649 2.55916 10.5556 2.86727C10.7509 3.02133 10.8876 3.15613 10.9852 3.25242C11.0829 3.3487 11.122 3.38722 11.122 3.38722Z" fill="#D1D3D5"/>
<path d="M33.6414 1.24972C33.6414 1.24972 33.5046 1.19195 33.2507 1.09566C33.1335 1.03789 32.9773 0.98012 32.782 0.922348C32.5867 0.864576 32.3718 0.806805 32.1375 0.729776C31.6492 0.594975 31.0632 0.498689 30.3796 0.460175C29.696 0.440918 28.9148 0.440918 28.075 0.594975C27.2351 0.729776 26.3562 0.960863 25.4382 1.26898C24.5203 1.59635 23.5828 2.00075 22.6062 2.46293C21.6492 2.9251 20.6726 3.44504 19.6765 3.98425C18.6804 4.50419 17.6648 5.04339 16.6492 5.5826C15.6335 6.10254 14.5984 6.64174 13.6023 7.16169C12.6062 7.68163 11.6101 8.18232 10.6335 8.66375C10.1648 8.91409 9.65698 9.16444 9.1687 9.33775C8.68042 9.53033 8.17261 9.70364 7.66479 9.81918C6.6687 10.0695 5.65308 10.1273 4.75464 9.87696C4.30542 9.74216 3.89526 9.53033 3.58276 9.26073C3.25073 8.99112 3.01636 8.66375 2.84058 8.33638C2.76245 8.18232 2.68433 8.009 2.64526 7.83569C2.58667 7.66237 2.56714 7.50832 2.56714 7.35426C2.54761 7.04614 2.58667 6.75729 2.68433 6.50694C2.84058 6.00625 3.15308 5.69814 3.36792 5.54408C3.42651 5.50557 3.46558 5.46705 3.52417 5.4478C3.56323 5.42854 3.6023 5.40928 3.64136 5.39002C3.69995 5.35151 3.73901 5.33225 3.73901 5.33225C3.73901 5.33225 3.69995 5.35151 3.66089 5.39002C3.64136 5.40928 3.60229 5.42854 3.56323 5.46705C3.52417 5.50557 3.48511 5.54408 3.42651 5.5826C3.2312 5.75591 2.99683 6.08328 2.89917 6.56471C2.80151 7.02689 2.84058 7.64312 3.19214 8.18232C3.5437 8.72152 4.14917 9.22221 4.93042 9.37627C5.71167 9.54958 6.62964 9.43404 7.52808 9.16444C7.97729 9.02964 8.44605 8.85632 8.9148 8.64449C9.38355 8.43266 9.83276 8.20158 10.3015 7.95123C11.2585 7.45055 12.2156 6.91134 13.2312 6.37214C14.2273 5.8522 15.2429 5.31299 16.2585 4.77379C17.2742 4.25385 18.3093 3.71465 19.3054 3.1947C20.3015 2.67476 21.3171 2.17407 22.3132 1.73115C23.3093 1.28824 24.3054 0.903091 25.2624 0.614233C26.2195 0.325374 27.1765 0.152059 28.0554 0.0557732C28.9343 -0.0405129 29.7546 -0.00199847 30.4578 0.0942876C31.1609 0.190574 31.7664 0.363889 32.2546 0.537204C32.489 0.63349 32.7039 0.710519 32.8796 0.787548C33.0554 0.883834 33.1921 0.960862 33.3093 1.01863C33.5242 1.17269 33.6414 1.24972 33.6414 1.24972Z" fill="#D1D3D5"/>
<path d="M2.02051 12.8618C2.02051 12.8618 2.15723 12.9196 2.41113 13.0158C2.52832 13.0544 2.68457 13.1314 2.87988 13.1892C3.0752 13.2469 3.29004 13.3047 3.52441 13.3625C4.0127 13.478 4.59863 13.5743 5.30176 13.6128C5.98535 13.6321 6.7666 13.5936 7.60644 13.4395C8.44629 13.2854 9.32519 13.0544 10.2432 12.7077C11.1611 12.3804 12.0986 11.9567 13.0557 11.4753C14.0127 11.0131 14.9697 10.4546 15.9658 9.91543C16.9619 9.37623 17.958 8.81777 18.9736 8.25931C19.9893 7.7201 21.0049 7.16165 22.001 6.6417C22.9971 6.1025 23.9932 5.60181 24.9307 5.08186C25.3994 4.83152 25.8877 4.58118 26.3955 4.36935C26.8838 4.15752 27.3916 4.00346 27.8799 3.86866C28.876 3.61831 29.8916 3.52203 30.79 3.77237C31.2393 3.88792 31.6494 4.09975 31.9814 4.36935C32.3135 4.63895 32.5478 4.94706 32.7432 5.27444C32.8213 5.40924 32.8994 5.60181 32.958 5.77512C33.0166 5.94844 33.0361 6.1025 33.0557 6.25656C33.0752 6.56467 33.0361 6.87279 32.958 7.10387C32.8018 7.60456 32.5088 7.91268 32.2939 8.08599C32.2353 8.12451 32.1963 8.16302 32.1572 8.18228C32.1182 8.20154 32.0791 8.22079 32.04 8.24005C31.9814 8.27856 31.9424 8.29782 31.9424 8.29782C31.9424 8.29782 31.9619 8.27856 32.0205 8.24005C32.04 8.22079 32.0791 8.20154 32.1182 8.16302C32.1572 8.12451 32.1963 8.08599 32.2549 8.04748C32.4502 7.87416 32.6846 7.52753 32.7822 7.06536C32.8799 6.60319 32.8213 5.98695 32.4502 5.44775C32.0986 4.90855 31.4736 4.42712 30.6924 4.27306C29.9111 4.119 28.9932 4.23455 28.0947 4.5234C27.6455 4.65821 27.1768 4.85078 26.7275 5.06261C26.2783 5.27444 25.8291 5.50552 25.3408 5.79438C24.4033 6.31433 23.4268 6.87279 22.4502 7.41199C21.4541 7.95119 20.458 8.50965 19.4424 9.06811C18.4268 9.60731 17.4111 10.1465 16.415 10.6857C15.4189 11.2249 14.4229 11.7449 13.4463 12.207C12.4502 12.6692 11.4736 13.0544 10.5166 13.3625C9.55957 13.6706 8.62207 13.8632 7.74316 13.9594C6.86426 14.075 6.04394 14.0365 5.34082 13.9594C4.6377 13.8632 4.03223 13.7091 3.54395 13.5358C3.30957 13.4395 3.09473 13.3625 2.91895 13.2854C2.74316 13.1892 2.60645 13.1121 2.46973 13.0544C2.1377 12.9196 2.02051 12.8618 2.02051 12.8618Z" fill="#D1D3D5"/>
</svg>
